<svg xmlns="http://www.w3.org/2000/svg" width="74" height="57" viewBox="0 0 74 57"><g><g><path fill="#fff" d="M65.39 7.785c4.704 0 8.552 3.848 8.552 8.552v31.478c0 4.704-3.848 8.552-8.552 8.552H9.055c-4.703 0-8.552-3.848-8.552-8.552V16.337c0-4.704 3.849-8.552 8.552-8.552h21.992c1.739-4.606 6.189-7.91 11.384-7.91h6.342c5.195 0 9.645 3.304 11.385 7.91zm-53.081 16.89a5.686 5.686 0 1 0-.001-11.369 5.686 5.686 0 0 0 0 11.37zm33.293 28.02c10.864 0 19.67-8.805 19.67-19.67 0-10.862-8.806-19.67-19.67-19.67-10.864 0-19.67 8.808-19.67 19.67 0 10.865 8.806 19.67 19.67 19.67z"/></g><g><path fill="#fff" d="M45.602 19.342c-7.557 0-13.683 6.127-13.683 13.684 0 7.557 6.126 13.683 13.683 13.683 7.557 0 13.683-6.126 13.683-13.683 0-7.557-6.126-13.684-13.683-13.684z"/></g></g></svg>