<svg xmlns="http://www.w3.org/2000/svg" width="185" height="35" viewBox="0 0 185 35"><g><g><path fill="#fff" d="M177.685 31.121c0 1.468-1.218 2.655-2.72 2.655H3.676c-1.502 0-2.72-1.187-2.72-2.655V3.317C.956 1.85 2.174.661 3.676.661h171.287c1.503 0 2.721 1.19 2.721 2.656z"/></g><g><path fill="#231f20" d="M174.965-.078c1.907 0 3.46 1.523 3.46 3.395v27.804c0 1.872-1.553 3.395-3.46 3.395H3.677c-1.907 0-3.46-1.523-3.46-3.395V3.317c0-1.872 1.553-3.395 3.46-3.395zm-173.27 31.2c0 1.056.89 1.915 1.982 1.915h171.288c1.092 0 1.98-.859 1.98-1.916V3.317c0-1.056-.888-1.917-1.98-1.917H3.677c-1.092 0-1.981.861-1.981 1.917z"/></g><g><g><path fill="#fff" d="M175.155 31.245h-26.89V3.117h26.89z"/></g></g><g><path fill="#231f20" d="M147.894 2.746h27.633v28.87h-27.633zm26.89.742h-26.148v27.386h26.148z"/></g><g><g><path fill="#231f20" d="M59.454 31.283H32.561V3.155h26.893z"/></g></g><g><path fill="#231f20" d="M32.19 2.784h27.635v28.87H32.19zm26.893.742H32.932v27.386h26.151z"/></g><g><g><path fill="#231f20" d="M88.286 31.283H61.393V3.155h26.893z"/></g></g><g><path fill="#231f20" d="M61.022 2.784h27.635v28.87H61.022zm26.893.742h-26.15v27.386h26.15z"/></g><g><g><path fill="#231f20" d="M117.303 31.283h-26.89V3.155h26.89z"/></g></g><g><path fill="#231f20" d="M90.042 2.784h27.632v28.87H90.042zm26.89.742H90.785v27.386h26.147z"/></g><g><g><path fill="#231f20" d="M146.327 31.283h-26.892V3.155h26.892z"/></g></g><g><path fill="#231f20" d="M119.063 2.784h27.635v28.87h-27.635zm26.893.742h-26.15v27.386h26.15z"/></g><g><g><path fill="#231f20" d="M30.432 31.283H3.541V3.155h26.891z"/></g></g><g><path fill="#231f20" d="M3.17 2.784h27.633v28.87H3.17zm26.891.742H3.913v27.386h26.148z"/></g><g><path fill="#fff" d="M17.622 27.356c-5.73 0-8.785-4.238-8.785-9.957 0-6.212 3.634-9.95 8.81-9.95 4.743 0 6.615 2.036 7.939 5.671l-4.851 1.91c-.69-1.799-1.35-2.933-3.113-2.933-2.233 0-3.2 2.24-3.2 5.302 0 2.958.938 5.306 3.255 5.306 1.679 0 2.397-.912 3.445-2.737l4.516 2.41c-1.291 2.527-3.443 4.978-8.016 4.978z"/></g><g><path fill="#fff" d="M47.677 19.191h-3.196l.358-1.266c.69-2.451.994-3.522 1.241-4.818.248 1.296.55 2.339 1.24 4.818zm8.13 7.641l-7-19.289h-5.402l-6.998 19.289h5.73l1.047-3.413h5.788l1.047 3.413z"/></g><g><path fill="#fff" d="M75.114 16.21h-3.146v-4.223h3.227c1.683 0 2.346.86 2.346 2.073 0 1.38-.689 2.15-2.427 2.15zm8.134 10.715l-3.86-7.362c2.121-.962 3.473-2.748 3.473-5.643 0-4.575-3.005-6.284-7.527-6.284h-8.628v19.289h5.262v-6.513h2.152l3.146 6.513z"/></g><g><path fill="#fff" d="M101.533 12.177v2.69h6.032v4.515h-6.032v7.543h-5.32V7.635h15.267v4.542z"/></g><g><path fill="#fff" d="M134.284 19.343h-3.197l.36-1.265c.688-2.45.99-3.524 1.237-4.819.25 1.295.553 2.338 1.242 4.82zm8.13 7.641l-7-19.287h-5.402l-7 19.287h5.733l1.046-3.41h5.788l1.047 3.41z"/></g><g><path fill="#231f20" d="M164.408 31.509l-.851-1.308c-.753-1.206-1.507-2.495-2.02-3.536-.483 1.014-1.267 2.33-2.051 3.536l-.942 1.308h-6.551l6.347-8.792-6.665-9.486h6.786l1.176 1.864c.753 1.205 1.568 2.494 2.02 3.509.483-1.015 1.298-2.304 2.05-3.51l1.178-1.863h6.634l-6.665 9.377 6.256 8.9z"/></g><g><path fill="#fff" d="M183.943 4.44a2.384 2.384 0 0 1-1.776.751 2.433 2.433 0 0 1-1.788-.746 2.476 2.476 0 0 1-.741-1.812c0-.725.246-1.337.736-1.839a2.418 2.418 0 0 1 1.793-.75c.697 0 1.289.25 1.776.75.488.502.732 1.11.732 1.828 0 .711-.244 1.316-.732 1.817zm-.291-3.365c-.415-.436-.904-.654-1.464-.654-.596 0-1.104.218-1.522.654a2.172 2.172 0 0 0-.628 1.558c0 .603.209 1.12.628 1.547.418.43.919.644 1.5.644.576 0 1.07-.217 1.486-.649.415-.433.622-.95.622-1.553 0-.596-.207-1.11-.622-1.547zm-.377 1.556c-.2.167-.427.251-.682.251l.924 1.23h-.57l-.918-1.223h-.523v1.223h-.456V1.066h1.49c.335 0 .589.083.767.25.178.168.267.38.267.636 0 .285-.1.511-.3.68zm-.88-1.143h-.89v.99h.923c.445 0 .668-.176.668-.527 0-.309-.234-.463-.7-.463z"/></g><g><path fill="#fff" d="M180.342.763a2.47 2.47 0 0 1 1.825-.765c.706 0 1.314.258 1.808.766.494.506.744 1.132.744 1.858 0 .72-.25 1.342-.744 1.85a2.444 2.444 0 0 1-1.808.763 2.482 2.482 0 0 1-1.82-.759 2.525 2.525 0 0 1-.753-1.843c0-.733.252-1.363.748-1.87zm.069 3.651a2.4 2.4 0 0 0 1.756.732 2.35 2.35 0 0 0 1.744-.738 2.472 2.472 0 0 0 .719-1.786c0-.702-.241-1.307-.72-1.797a2.355 2.355 0 0 0-1.743-.738c-.69 0-1.281.25-1.761.738-.48.49-.724 1.1-.724 1.808 0 .695.245 1.294.729 1.781z"/></g><g><path fill="#fff" d="M180.634 1.044a2.08 2.08 0 0 1 1.554-.667c.57 0 1.073.224 1.495.667.422.443.635.974.635 1.578 0 .612-.213 1.144-.635 1.584-.422.44-.932.662-1.517.662a2.073 2.073 0 0 1-1.532-.657 2.187 2.187 0 0 1-.64-1.579c0-.61.215-1.146.64-1.588zm.064 3.105c.407.418.901.63 1.468.63.56 0 1.05-.214 1.453-.635a2.13 2.13 0 0 0 .61-1.522c0-.58-.205-1.09-.61-1.517-.404-.425-.886-.64-1.43-.64-.582 0-1.084.215-1.49.64-.41.426-.617.94-.617 1.527 0 .59.207 1.1.616 1.517z"/></g><g><path fill="#fff" d="M182.54 1.021c.343 0 .612.09.797.263a.88.88 0 0 1 .281.668.888.888 0 0 1-.315.713c-.185.155-.4.23-.632.247l.934 1.245h-.088l-.606-.019-.883-1.205h-.478v1.224h-.545V1.021zm-1.446.09v2.956h.367V2.844h.044l.559.018.883 1.205h.481l-.925-1.23h.09a.99.99 0 0 0 .653-.24c.19-.16.283-.372.283-.645a.797.797 0 0 0-.252-.603c-.169-.159-.417-.239-.737-.239z"/></g><g><path fill="#fff" d="M182.395 1.444c.241 0 .426.041.55.123a.43.43 0 0 1 .196.384c0 .38-.24.571-.713.571h-.967V1.444zm-.846.09v.9h.878c.42 0 .624-.159.624-.483 0-.14-.05-.24-.156-.31-.109-.072-.277-.108-.5-.108z"/></g></g></svg>