<svg xmlns="http://www.w3.org/2000/svg" width="74" height="79" viewBox="0 0 74 79"><g><g><path fill="#be1c2d" d="M72.865 39.779a99.65 99.65 0 0 1-3.192-1.501c-.971-.474-1.154-.923-.818-1.958 1.094-3.378 2.195-6.755 3.29-10.133.244-.755.187-.816-.595-.651-3.186.673-6.371 1.352-9.557 2.023-.974.205-1.392-.007-1.795-.927-.56-1.28-1.09-2.572-1.643-3.853-.322-.742-.366-.752-.914-.165-2.506 2.686-5.005 5.379-7.508 8.069-.285.307-.575.609-1.03.649-.856.076-1.433-.716-1.238-1.722.493-2.548.997-5.093 1.49-7.641.764-3.941 1.524-7.883 2.278-11.827.044-.23.23-.532.007-.691-.252-.178-.498.097-.721.224-1.763 1.012-3.515 2.045-5.283 3.047-1.125.638-1.643.465-2.23-.687C41.52 8.323 39.636 4.609 37.749.897c-.111-.22-.231-.432-.34-.651-.125-.254-.252-.393-.383-.384-.132-.01-.26.13-.384.384-.11.219-.23.432-.34.65-1.886 3.713-3.771 7.427-5.658 11.139-.587 1.152-1.104 1.325-2.23.687-1.768-1.002-3.52-2.035-5.283-3.047-.222-.127-.47-.402-.721-.224-.223.159-.036.462.008.69.754 3.945 1.513 7.887 2.277 11.828.493 2.548.997 5.093 1.49 7.64.195 1.007-.382 1.799-1.237 1.723-.455-.04-.745-.342-1.031-.65-2.502-2.69-5.001-5.382-7.508-8.068-.548-.587-.592-.577-.913.165-.555 1.28-1.084 2.573-1.643 3.853-.403.92-.821 1.132-1.796.927-3.186-.671-6.37-1.35-9.556-2.023-.783-.165-.84-.104-.595.65C3 29.566 4.1 32.943 5.195 36.32c.335 1.035.152 1.484-.82 1.958a99.65 99.65 0 0 1-3.191 1.5c-.561.25-.675.464-.127.882.933.714 1.832 1.473 2.746 2.213 4.913 3.974 9.828 7.946 14.739 11.924.927.75 1 1.084.585 2.232-.583 1.61-1.16 3.227-1.741 4.839-.344.95-.305 1.012.703.836 3.448-.602 6.894-1.217 10.34-1.825 1.76-.312 3.516-.652 5.282-.923 1.585-.244 2.508.68 2.32 2.248-.02.17-.042.34-.051.51-.247 4.718-.516 9.434-.727 14.153-.087 1.95-.238 1.888 1.142 1.876v.002h1.26v-.002c1.379.012 1.229.075 1.142-1.876-.211-4.72-.481-9.435-.728-14.152a7.304 7.304 0 0 0-.051-.511c-.187-1.567.735-2.492 2.32-2.248 1.766.27 3.52.61 5.28.923 3.448.608 6.894 1.223 10.342 1.825 1.008.176 1.047.114.704-.836-.582-1.612-1.16-3.228-1.742-4.84-.415-1.147-.342-1.48.585-2.231 4.91-3.978 9.826-7.95 14.74-11.924.914-.74 1.812-1.5 2.746-2.213.547-.418.434-.631-.128-.881z"/></g></g></svg>