<svg xmlns="http://www.w3.org/2000/svg" width="35" height="34" viewBox="0 0 35 34"><g><g><path fill="#fff" d="M24.334 3.111c1.63.075 2.519.348 3.108.578a5.219 5.219 0 0 1 1.926 1.251 5.188 5.188 0 0 1 1.25 1.926c.23.591.504 1.477.578 3.11.08 1.766.096 2.297.096 6.764 0 4.475-.016 5.003-.096 6.77-.074 1.633-.347 2.518-.578 3.11-.304.778-.663 1.34-1.25 1.926a5.254 5.254 0 0 1-1.926 1.25c-.59.228-1.477.502-3.108.578-1.766.08-2.296.098-6.77.098-4.471 0-5-.019-6.765-.098-1.632-.076-2.52-.35-3.108-.578a5.213 5.213 0 0 1-1.928-1.25 5.214 5.214 0 0 1-1.251-1.926c-.228-.592-.501-1.477-.578-3.109-.08-1.768-.097-2.296-.097-6.77 0-4.468.018-4.999.097-6.765.077-1.633.35-2.519.578-3.11a5.19 5.19 0 0 1 1.25-1.926 5.178 5.178 0 0 1 1.929-1.25c.589-.23 1.476-.504 3.108-.579 1.766-.08 2.294-.096 6.766-.096 4.473 0 5 .015 6.769.096zM10.66.098C8.88.18 7.663.464 6.596.878A8.194 8.194 0 0 0 3.63 2.808a8.24 8.24 0 0 0-1.932 2.964C1.286 6.84 1.003 8.056.922 9.84.84 11.623.82 12.193.82 16.74c0 4.55.02 5.121.1 6.906.082 1.784.365 3 .778 4.066A8.276 8.276 0 0 0 3.63 30.68a8.294 8.294 0 0 0 2.965 1.93c1.067.413 2.284.698 4.065.78 1.786.078 2.355.1 6.904.1 4.547 0 5.118-.022 6.904-.1 1.783-.082 3-.367 4.066-.78a8.28 8.28 0 0 0 2.966-1.93 8.185 8.185 0 0 0 1.928-2.967c.418-1.066.7-2.282.78-4.066.083-1.785.103-2.357.103-6.906 0-4.547-.02-5.117-.102-6.9-.081-1.784-.363-3-.781-4.067A8.15 8.15 0 0 0 31.5 2.81 8.181 8.181 0 0 0 28.535.877C27.469.464 26.252.18 24.469.098c-1.786-.08-2.357-.102-6.904-.102-4.55 0-5.118.021-6.904.102z"/></g><g><path fill="#fff" d="M17.565 8.143c4.75 0 8.602 3.85 8.602 8.597a8.601 8.601 0 0 1-17.201 0 8.6 8.6 0 0 1 8.599-8.597zm0 14.181a5.581 5.581 0 1 0 0-11.162 5.581 5.581 0 0 0 0 11.162z"/></g><g><path fill="#fff" d="M28.515 7.806a2.011 2.011 0 0 1-4.021 0 2.01 2.01 0 0 1 4.02 0z"/></g></g></svg>