<svg xmlns="http://www.w3.org/2000/svg" width="31" height="30" viewBox="0 0 31 30"><g><g><path fill="#fff" d="M21.87 2.79c1.462.066 2.257.311 2.785.517a4.678 4.678 0 0 1 1.725 1.121 4.66 4.66 0 0 1 1.12 1.724c.206.53.45 1.323.517 2.786.072 1.582.086 2.058.086 6.06 0 4.007-.014 4.48-.086 6.062-.066 1.463-.311 2.256-.517 2.786a4.688 4.688 0 0 1-1.12 1.725 4.713 4.713 0 0 1-1.725 1.12c-.528.204-1.323.45-2.785.517-1.581.072-2.056.088-6.062.088s-4.48-.016-6.061-.088c-1.461-.068-2.256-.313-2.784-.517a4.688 4.688 0 0 1-1.727-1.12 4.688 4.688 0 0 1-1.12-1.725c-.204-.53-.45-1.323-.518-2.785-.07-1.583-.086-2.056-.086-6.064 0-4 .016-4.477.086-6.059.069-1.463.314-2.256.518-2.786a4.66 4.66 0 0 1 1.12-1.724 4.653 4.653 0 0 1 1.727-1.12c.528-.207 1.323-.452 2.784-.518 1.582-.073 2.055-.087 6.06-.087 4.007 0 4.48.014 6.063.087zM9.624.09C8.029.163 6.939.418 5.983.788A7.33 7.33 0 0 0 3.328 2.52a7.368 7.368 0 0 0-1.732 2.655C1.226 6.128.974 7.218.9 8.815.828 10.413.81 10.925.81 14.997c0 4.074.018 4.586.09 6.186.074 1.597.326 2.687.696 3.641a7.392 7.392 0 0 0 1.732 2.657 7.39 7.39 0 0 0 2.655 1.73c.956.37 2.046.624 3.64.697 1.6.071 2.11.091 6.185.091 4.072 0 4.584-.02 6.184-.09 1.597-.074 2.687-.328 3.64-.699a7.388 7.388 0 0 0 2.658-1.729 7.312 7.312 0 0 0 1.727-2.657c.375-.954.627-2.044.7-3.64.073-1.6.09-2.113.09-6.187 0-4.073-.017-4.584-.09-6.182-.073-1.597-.325-2.687-.7-3.64a7.288 7.288 0 0 0-1.727-2.656A7.328 7.328 0 0 0 25.633.79c-.954-.37-2.044-.626-3.641-.699C20.392.018 19.88 0 15.808 0c-4.075 0-4.584.018-6.184.09z"/></g><g><path fill="#fff" d="M15.808 7.297a7.703 7.703 0 1 1-7.702 7.7c0-4.252 3.45-7.7 7.702-7.7zm0 12.701a5 5 0 1 0 0-9.998 5 5 0 0 0 0 9.998z"/></g><g><path fill="#fff" d="M25.615 6.994a1.801 1.801 0 0 1-3.6 0 1.8 1.8 0 0 1 3.6 0z"/></g></g></svg>