<svg xmlns="http://www.w3.org/2000/svg" width="341" height="76" viewBox="0 0 341 76"><g><g><path fill="#fff" d="M55.563 20.07a4.197 4.197 0 0 1-1.434 3.162h.002l-.006.003a4.15 4.15 0 0 1-.362.284c-.406.373-1.004 1.112-1.004 2.232v24.496c0 1.121.598 1.86 1.004 2.233a3.967 3.967 0 0 1 .367.286v.001a4.206 4.206 0 1 1-5.544 0h-.002l.005-.003a3.98 3.98 0 0 1 .364-.284c.405-.373 1.002-1.112 1.002-2.233V39.401h-6.568a5.884 5.884 0 0 1-1.581 2.79 5.826 5.826 0 0 1-.938.757 5.877 5.877 0 0 1-1.869.798v6.501c0 1.121.597 1.86 1.003 2.233.126.088.247.182.363.284l.004.002v.001a4.205 4.205 0 1 1-5.543 0h-.002l.005-.003c.115-.102.236-.196.362-.284.406-.373 1.004-1.112 1.004-2.233V43.72a5.874 5.874 0 0 1-2.143-1.044 5.902 5.902 0 0 1-2.134-3.275h-6.68v10.846c0 1.121.598 1.86 1.004 2.233a3.967 3.967 0 0 1 .367.286v.001a4.206 4.206 0 1 1-5.543 0h-.002l.004-.003c.116-.102.237-.196.363-.284.406-.373 1.003-1.112 1.003-2.233V25.751c0-1.12-.597-1.859-1.003-2.232a4.32 4.32 0 0 1-.363-.284l-.004-.003h.001a4.204 4.204 0 0 1 2.771-7.367 4.205 4.205 0 0 1 2.772 7.367h.001l-.005.003a4.15 4.15 0 0 1-.362.284c-.406.373-1.004 1.112-1.004 2.232v10.847h6.68a5.902 5.902 0 0 1 2.455-3.507 5.876 5.876 0 0 1 1.822-.813v-6.527c0-1.12-.598-1.859-1.004-2.232a4.15 4.15 0 0 1-.362-.284l-.005-.003h.001a4.205 4.205 0 1 1 5.543 0h.002l-.005.003a4.32 4.32 0 0 1-.363.284c-.406.373-1.003 1.112-1.003 2.232v6.502a5.854 5.854 0 0 1 2.512 1.282 5.806 5.806 0 0 1 .826.875 5.79 5.79 0 0 1 .937 1.79c.042.13.08.263.112.398h6.57V25.751c0-1.12-.598-1.859-1.004-2.232a4.164 4.164 0 0 1-.363-.284l-.005-.003h.001a4.204 4.204 0 0 1 2.772-7.367 4.205 4.205 0 0 1 4.206 4.205zm-17.91 21.34a3.41 3.41 0 1 0 0-6.82 3.41 3.41 0 0 0 0 6.82z"/></g><g><path fill="#fff" d="M37.597.5c20.678 0 37.5 16.822 37.5 37.5 0 20.677-16.822 37.5-37.5 37.5C16.92 75.5.097 58.676.097 38 .097 17.321 16.92.5 37.597.5zm0 69.97c17.905 0 32.471-14.566 32.471-32.47 0-17.905-14.566-32.47-32.471-32.47C19.693 5.53 5.126 20.094 5.126 38c0 17.904 14.567 32.47 32.471 32.47z"/></g><g><path fill="#fff" d="M96.464 29.768c-.199-1.143.994-2.286 2.932-2.286 2.335 0 3.975 1.292 4.322 3.33.15.994.646 1.441 1.64 1.242l5.665-1.243c.894-.198 1.341-.745 1.291-1.639-.298-3.578-2.683-10.236-12.918-10.236-11.13 0-12.025 8.795-11.975 10.286 0 11.428 14.956 10.484 15.9 14.708.298 1.341-1.49 2.782-3.925 2.782-2.336 0-4.174-1.39-4.373-3.776-.099-1.043-.646-1.49-1.64-1.292l-5.615 1.242c-.894.2-1.34.745-1.292 1.64.25 3.875 2.485 10.732 12.92 10.732 11.776 0 13.465-8.795 13.465-10.285 0-11.429-15.702-11.329-16.397-15.205z"/></g><g><path fill="#fff" d="M141.282 21.223c0-.994-.497-1.491-1.491-1.491h-5.565c-.944 0-1.491.547-1.491 1.49v12.423c0 .944-.496 1.49-1.49 1.49h-4.77c-.944 0-1.491-.546-1.491-1.49V21.223c0-.944-.546-1.491-1.49-1.491h-5.566c-.993 0-1.49.497-1.49 1.49v31.8c0 .946.546 1.492 1.49 1.492h5.566c.993 0 1.49-.546 1.49-1.491v-7.85c0-.994.547-1.491 1.49-1.491h4.77c.995 0 1.49.497 1.49 1.49v7.85c0 .946.548 1.492 1.492 1.492h5.565c.994 0 1.49-.546 1.49-1.491z"/></g><g><path fill="#fff" d="M154.696 53.023v-31.8c0-.994-.497-1.492-1.49-1.492h-5.466c-.944 0-1.49.498-1.49 1.492v31.8c0 .944.546 1.49 1.49 1.49h5.465c.994 0 1.491-.546 1.491-1.49z"/></g><g><path fill="#fff" d="M182.52 19.731h-21.365c-.944 0-1.49.497-1.49 1.491v31.801c0 .944.546 1.49 1.49 1.49h5.863c.994 0 1.49-.546 1.49-1.49V42.886c0-.993.547-1.49 1.492-1.49h8.198c.994 0 1.49-.547 1.49-1.49V34.34c0-.994-.496-1.49-1.49-1.49H170c-.945 0-1.491-.548-1.491-1.492v-1.59c0-.994.546-1.49 1.49-1.49h12.522c.994 0 1.49-.547 1.49-1.49v-5.566c0-.994-.496-1.49-1.49-1.49z"/></g><g><path fill="#fff" d="M211.935 19.731h-25.441c-.943 0-1.49.497-1.49 1.491v5.565c0 .944.547 1.491 1.49 1.491h6.957c.994 0 1.49.496 1.49 1.49v23.255c0 .944.547 1.49 1.49 1.49h5.566c.994 0 1.49-.546 1.49-1.49V29.768c0-.994.548-1.49 1.492-1.49h6.956c.994 0 1.49-.547 1.49-1.49v-5.566c0-.994-.496-1.49-1.49-1.49z"/></g><g><path fill="#fff" d="M227.858 55.408c11.776 0 12.472-8.795 12.472-12.075v-6.708c0-.993-.497-1.49-1.49-1.49h-9.938c-.945 0-1.49.497-1.49 1.49v3.976c0 .944.545 1.491 1.49 1.491h2.882c0 2.434-.249 4.77-3.926 4.77s-3.925-2.336-3.925-6.162v-7.155c0-3.826.248-6.16 3.925-6.16 2.832 0 3.677 1.39 3.876 3.775.1 1.043.646 1.491 1.64 1.291l5.614-1.24c.895-.2 1.342-.747 1.292-1.64-.248-3.877-1.987-10.734-12.422-10.734-11.776 0-12.472 8.795-12.472 12.074v12.422c0 3.28.696 12.075 12.472 12.075z"/></g><g><path fill="#fff" d="M260.254 48.7c0-.994-.497-1.49-1.49-1.49h-4.274c-.944 0-1.49.496-1.49 1.49v4.323c0 .993-.498 1.49-1.492 1.49h-5.565c-.944 0-1.49-.596-1.49-1.689V31.756c0-6.26.994-12.919 12.174-12.919s12.173 6.658 12.173 12.92v21.067c0 1.093-.497 1.69-1.49 1.69h-5.566c-.944 0-1.49-.498-1.49-1.49zM253 37.172c0 .944.547 1.491 1.491 1.491h4.273c.994-.05 1.491-.547 1.491-1.54v-5.367c0-2.385-.348-3.578-3.627-3.578-3.28 0-3.628 1.193-3.628 3.578z"/></g><g><path fill="#fff" d="M297.47 19.731h-25.44c-.945 0-1.492.497-1.492 1.491v5.565c0 .944.547 1.491 1.491 1.491h6.956c.994 0 1.491.496 1.491 1.49v23.255c0 .944.546 1.49 1.49 1.49h5.565c.994 0 1.491-.546 1.491-1.49V29.768c0-.994.547-1.49 1.491-1.49h6.956c.994 0 1.491-.547 1.491-1.49v-5.566c0-.994-.497-1.49-1.49-1.49z"/></g><g><path fill="#fff" d="M324.3 19.731h-20.869c-.944 0-1.491.497-1.491 1.491v31.801c0 .944.547 1.49 1.491 1.49H324.3c.994 0 1.491-.497 1.491-1.49v-5.565c0-.995-.497-1.49-1.491-1.49h-12.024c-.945 0-1.491-.548-1.491-1.492v-1.59c0-.993.546-1.49 1.491-1.49h7.701c.994 0 1.491-.547 1.491-1.49V34.34c0-.994-.497-1.49-1.491-1.49h-7.701c-.945 0-1.491-.548-1.491-1.492v-1.59c0-.994.546-1.49 1.491-1.49H324.3c.994 0 1.491-.547 1.491-1.49v-5.566c0-.994-.497-1.49-1.491-1.49z"/></g><g><path fill="#fff" d="M337.5 19.217c0 .816-.49 1.306-1.18 1.505l1.343 1.88h-1.037l-1.22-1.732h-1.093v1.733h-.873v-4.97h2.214c.625 0 1.115.185 1.435.497.262.27.41.639.41 1.072zm-1.91.88c.626 0 1.023-.327 1.023-.831v-.014c0-.532-.383-.824-1.03-.824h-1.27v1.669z"/></g><g><path fill="#fff" d="M335.391 14.868a5.256 5.256 0 0 1 5.25 5.25 5.256 5.256 0 0 1-5.25 5.25 5.257 5.257 0 0 1-5.25-5.25 5.256 5.256 0 0 1 5.25-5.25zm0 9.545a4.3 4.3 0 0 0 4.295-4.295 4.3 4.3 0 0 0-4.295-4.296 4.3 4.3 0 0 0-4.295 4.296 4.3 4.3 0 0 0 4.295 4.295z"/></g><g><path fill="#fff" d="M136.289 63.088l3.05 7.166h-1.637l-.65-1.597h-3.01l-.65 1.597h-1.595l3.049-7.166zm.204 4.187l-.946-2.307-.945 2.307z"/></g><g><path fill="#fff" d="M145.72 67.215c0 1.128-.579 1.708-1.535 1.708-.955 0-1.535-.6-1.535-1.76V63.14h-1.565v4.066c0 2.094 1.17 3.16 3.08 3.16 1.91 0 3.12-1.056 3.12-3.212v-4.014h-1.565z"/></g><g><path fill="#fff" d="M149.387 64.582h2.165v5.672h1.565v-5.672h2.165v-1.443h-5.895z"/></g><g><path fill="#fff" d="M160.668 63.016c2.195 0 3.771 1.637 3.771 3.66v.02c0 2.023-1.596 3.68-3.792 3.68-2.196 0-3.77-1.637-3.77-3.66v-.02c0-2.023 1.595-3.68 3.791-3.68zm2.135 3.68c0-1.22-.895-2.236-2.155-2.236-1.26 0-2.134.996-2.134 2.215v.021c0 1.22.894 2.236 2.155 2.236 1.26 0 2.134-.996 2.134-2.216z"/></g><g><path fill="#fff" d="M170.403 66.147l-1.87-3.009h-1.688v7.115h1.535V65.64l1.982 3.008h.041l2.002-3.039v4.645h1.555v-7.115h-1.687z"/></g><g><path fill="#fff" d="M180.159 63.016c2.195 0 3.77 1.637 3.77 3.66v.02c0 2.023-1.595 3.68-3.791 3.68-2.195 0-3.771-1.637-3.771-3.66v-.02c0-2.023 1.596-3.68 3.792-3.68zm2.134 3.68c0-1.22-.894-2.236-2.155-2.236-1.26 0-2.134.996-2.134 2.215v.021c0 1.22.894 2.236 2.155 2.236 1.26 0 2.134-.996 2.134-2.216z"/></g><g><path fill="#fff" d="M185.523 64.582h2.165v5.672h1.565v-5.672h2.166v-1.443h-5.896z"/></g><g><path fill="#fff" d="M193.703 70.254h1.565v-7.115h-1.565z"/></g><g><path fill="#fff" d="M201.041 68.15l-1.86-5.011h-1.728l2.876 7.166h1.383l2.876-7.166h-1.687z"/></g><g><path fill="#fff" d="M208.256 67.367h3.354v-1.393h-3.354v-1.443h3.811v-1.393H206.7v7.116h5.418v-1.393h-3.862z"/></g><g><path fill="#fff" d="M222.472 63.088l3.05 7.166h-1.637l-.65-1.597h-3.009l-.65 1.597h-1.596l3.05-7.166zm.203 4.187l-.945-2.307-.945 2.307z"/></g><g><path fill="#fff" d="M231.903 67.215c0 1.128-.579 1.708-1.535 1.708-.955 0-1.534-.6-1.534-1.76V63.14h-1.566v4.066c0 2.094 1.17 3.16 3.08 3.16 1.911 0 3.121-1.056 3.121-3.212v-4.014h-1.566z"/></g><g><path fill="#fff" d="M239.463 68.932c-1.22 0-2.064-1.016-2.064-2.236v-.02c0-1.22.865-2.216 2.064-2.216.712 0 1.27.305 1.82.803l.995-1.149c-.66-.65-1.463-1.098-2.805-1.098-2.185 0-3.71 1.657-3.71 3.68v.02c0 2.044 1.555 3.66 3.65 3.66 1.371 0 2.185-.488 2.917-1.271l-.997-1.006c-.559.508-1.057.833-1.87.833z"/></g><g><path fill="#fff" d="M244.086 64.582h2.165v5.672h1.565v-5.672h2.165v-1.443h-5.895z"/></g><g><path fill="#fff" d="M252.267 70.254h1.565v-7.115h-1.565z"/></g><g><path fill="#fff" d="M260.103 63.016c2.195 0 3.77 1.637 3.77 3.66v.02c0 2.023-1.595 3.68-3.791 3.68-2.196 0-3.771-1.637-3.771-3.66v-.02c0-2.023 1.596-3.68 3.792-3.68zm2.134 3.68c0-1.22-.895-2.236-2.155-2.236-1.26 0-2.134.996-2.134 2.215v.021c0 1.22.895 2.236 2.155 2.236 1.26 0 2.134-.996 2.134-2.216z"/></g><g><path fill="#fff" d="M271.057 67.52l-3.334-4.382h-1.444v7.115h1.545V65.73l3.447 4.523h1.331v-7.115h-1.545z"/></g><g><path fill="#fff" d="M278.21 65.995c-1.229-.315-1.535-.468-1.535-.935v-.021c0-.345.315-.62.915-.62.6 0 1.22.264 1.851.701l.813-1.179c-.722-.579-1.606-.904-2.643-.904-1.454 0-2.49.854-2.49 2.145v.02c0 1.413.924 1.809 2.357 2.175 1.19.305 1.434.508 1.434.905v.02c0 .417-.386.671-1.027.671-.813 0-1.484-.335-2.124-.864l-.925 1.108a4.527 4.527 0 0 0 3.02 1.138c1.533 0 2.611-.793 2.611-2.205v-.021c0-1.239-.813-1.758-2.257-2.134z"/></g></g></svg>