<svg xmlns="http://www.w3.org/2000/svg" width="129" height="129" viewBox="0 0 129 129"><g><g><path fill="#343233" d="M94.824 34.222c0 2.15-.947 4.078-2.445 5.393l-.007.005a7.393 7.393 0 0 1-.618.484c-.693.636-1.712 1.896-1.712 3.808v41.781c0 1.911 1.02 3.172 1.712 3.807a7.405 7.405 0 0 1 .625.49 7.172 7.172 0 0 1-4.728 12.566 7.173 7.173 0 0 1-4.728-12.566h-.002l.008-.005c.198-.173.404-.334.618-.485.694-.635 1.712-1.896 1.712-3.807v-18.5H74.054a9.971 9.971 0 0 1-.707 1.973 9.885 9.885 0 0 1-1.082 1.758 10.183 10.183 0 0 1-2.506 2.319 10.03 10.03 0 0 1-3.187 1.361v11.089c0 1.911 1.018 3.172 1.712 3.807.215.151.421.312.618.485l.008.005h-.002a7.173 7.173 0 1 1-9.455 0l.007-.005a7.09 7.09 0 0 1 .618-.485c.692-.635 1.712-1.896 1.712-3.807V74.56a10.019 10.019 0 0 1-3.657-1.781 10.073 10.073 0 0 1-3.637-5.586H43.101v18.5c0 1.911 1.02 3.172 1.712 3.807.215.151.421.312.618.485l.008.005h-.002a7.173 7.173 0 1 1-9.454 0h-.002l.008-.005c.197-.173.403-.334.618-.485.693-.635 1.712-1.896 1.712-3.807V43.912c0-1.912-1.019-3.172-1.712-3.808a7.233 7.233 0 0 1-.618-.484l-.008-.005h.002a7.173 7.173 0 1 1 9.454 0h.002l-.008.005a7.233 7.233 0 0 1-.618.484c-.692.636-1.712 1.896-1.712 3.808v18.499h11.395a10.074 10.074 0 0 1 7.294-7.367V43.912c0-1.912-1.02-3.172-1.712-3.808a7.08 7.08 0 0 1-.618-.484l-.008-.005h.001a7.173 7.173 0 0 1 4.727-12.566 7.173 7.173 0 0 1 4.728 12.566h.002l-.008.005a7.233 7.233 0 0 1-.618.484c-.694.636-1.712 1.896-1.712 3.808v11.089a10.03 10.03 0 0 1 4.284 2.186 10.065 10.065 0 0 1 3.198 5.224H85.26V43.912c0-1.912-1.018-3.172-1.712-3.808a7.56 7.56 0 0 1-.618-.484l-.008-.005h.002a7.173 7.173 0 0 1 4.728-12.566 7.172 7.172 0 0 1 7.173 7.173zM64.275 70.619a5.816 5.816 0 0 0 5.816-5.817 5.816 5.816 0 1 0-11.633 0 5.817 5.817 0 0 0 5.817 5.817z"/></g><g><path fill="#343233" d="M64.18.841c35.27 0 63.962 28.693 63.962 63.961S99.45 128.763 64.18 128.763C28.913 128.763.22 100.07.22 64.803.22 29.533 28.913.84 64.18.84zm0 119.344c30.54 0 55.385-24.845 55.385-55.383 0-30.538-24.845-55.383-55.384-55.383-30.538 0-55.383 24.845-55.383 55.383 0 30.538 24.845 55.383 55.383 55.383z"/></g></g></svg>