<svg xmlns="http://www.w3.org/2000/svg" width="129" height="129" viewBox="0 0 129 129"><g><g><path fill="#343233" d="M83.148 54.195c-3.723-2.683-8.31-4.414-12.552-5.28v7.098c14.456 2.856 22.679 7.358 22.679 19.13v.173c0 11.426-8.915 18.09-22.505 19.129v8.483h-9.003v-8.483c-9.608-.865-18.956-3.895-26.314-9.002l8.829-13.07c6.406 4.155 12.378 6.405 18.004 7.27v-7.27c-15.32-2.943-23.371-7.704-23.371-19.043v-.173c0-10.734 7.704-18.61 23.198-19.39v-4.933h9.002v5.193c8.05.779 14.542 3.289 20.342 7.01zm-20.688-6.06c-4.242.088-5.8 1.473-5.8 3.204v.173c0 1.818 1.298 2.857 5.8 3.636zm7.963 32.028c3.98-.173 5.54-1.471 5.54-3.29v-.172c0-1.818-1.125-2.77-5.54-3.55z"/></g><g><path fill="#343233" d="M.662 64.6C.662 29.33 29.355.638 64.623.638c35.269 0 63.961 28.693 63.961 63.962 0 35.268-28.692 63.96-63.961 63.96C29.355 128.56.662 99.869.662 64.6zm13.195 0c0 27.992 22.774 50.765 50.766 50.765 27.992 0 50.766-22.773 50.766-50.765 0-27.993-22.774-50.766-50.766-50.766-27.992 0-50.766 22.773-50.766 50.766z"/></g></g></svg>