<svg xmlns="http://www.w3.org/2000/svg" width="130" height="131" viewBox="0 0 130 131"><g><g><path fill="#343233" d="M119.105 63.314c-10.662 10.662-26.196 13.48-39.434 8.455v.001c-3.184-1.108-4.377.218-4.377.218L59.95 87.332l-2.558-2.557-39.028 39.03h-5.56l-6.893 6.892-5.361-1.31-.523-5.088 6.722-6.722v-5.897l38.574-38.574-2.253-2.252 14.656-14.656s1.894-2.408.725-5.207C53.04 37.6 55.764 21.69 66.62 10.832c14.494-14.493 37.99-14.493 52.484 0 14.492 14.492 14.492 37.99 0 52.482zm-52.15-27.687a7.075 7.075 0 0 0 10.007 0 7.077 7.077 0 1 0-10.007 0zm15.123-15.122a7.074 7.074 0 0 0 10.006 0 7.075 7.075 0 0 0 0-10.007 7.074 7.074 0 0 0-10.006 0 7.075 7.075 0 0 0 0 10.007zm31.578-3.78a7.075 7.075 0 0 0-10.007 0 7.075 7.075 0 0 0 0 10.007 7.077 7.077 0 0 0 10.007-10.007zm-52.15 51.927l-2.001-2.002-58.03 58.031.223 3.446zm11.23-10.786A7.077 7.077 0 1 0 82.744 47.86a7.077 7.077 0 0 0-10.006 10.007zM88.305 42.3a7.075 7.075 0 0 0 10.007 0 7.075 7.075 0 0 0 0-10.007 7.075 7.075 0 0 0-10.007 0 7.075 7.075 0 0 0 0 10.007zm31.134-4.447a7.075 7.075 0 0 0-10.007 0 7.077 7.077 0 1 0 10.007 0zm-25.13 25.13a7.076 7.076 0 1 0 10.008-10.008 7.076 7.076 0 1 0-10.008 10.007z"/></g></g></svg>