<svg xmlns="http://www.w3.org/2000/svg" width="147" height="104" viewBox="0 0 147 104"><g><g><path fill="#343233" d="M146.265 25.569c-3.844-1.372-7.687-2.745-11.537-4.101-4.12-1.451-8.25-2.87-12.365-4.33-4.598-1.631-9.18-3.308-13.777-4.94-4.055-1.438-8.131-2.822-12.185-4.264C89.7 5.552 83.018 3.13 76.315.763c-.865-.305-1.69-.782-2.773-.83-.157.034-.447.062-.715.156-2.951 1.026-5.901 2.05-8.843 3.099-3.545 1.262-7.077 2.556-10.621 3.817-3.455 1.23-6.923 2.423-10.377 3.655-3.934 1.402-7.853 2.844-11.788 4.24-4.145 1.473-8.304 2.903-12.452 4.369-4.75 1.677-9.492 3.374-14.238 5.06-1.202.427-2.413.829-3.606 1.279-.491.185-.848.39-.555 1.128.73 1.835 1.337 3.72 1.955 5.599.208.634.52.825 1.133.542.26-.12.55-.165.82-.263 3.48-1.252 6.953-2.525 10.44-3.757 3.607-1.276 7.233-2.498 10.84-3.772 4.209-1.485 8.404-3.008 12.609-4.503 3.846-1.367 7.699-2.715 11.545-4.081 4.175-1.483 8.347-2.975 12.518-4.466 3.092-1.105 6.17-2.253 9.282-3.3.98-.33 1.894-.892 3.113-.422 3.478 1.342 7.022 2.513 10.54 3.753 2.887 1.017 5.775 2.029 8.659 3.057 3.483 1.24 6.955 2.51 10.442 3.743 3.577 1.264 7.17 2.483 10.748 3.748 3.576 1.267 7.139 2.57 10.712 3.849a2381.77 2381.77 0 0 0 9.192 3.264c3.007 1.062 6.02 2.103 9.023 3.179.562.2.82.049 1-.486.634-1.873 1.236-3.76 1.966-5.593.318-.797-.021-1.045-.62-1.258z"/></g><g><path fill="#343233" d="M105.99 65.847c2.046.007 3.59 1.73 3.375 3.783-.098.931-.689 1.487-1.52 1.795-1.346.498-2.697.98-4.056 1.435-.677.225-.717.44-.19.943 1.176 1.128 2.501 2.088 3.614 3.289.807.87 1.33 1.861 1.332 3.041l.014 21.214c.001.892-.367 1.235-1.279 1.226a517.037 517.037 0 0 0-10.27-.002c-.872.007-1.198-.275-1.144-1.176.075-1.275 0-2.558.031-3.838.02-.753-.3-1.062-1.03-.998-.19.017-.385.002-.577.002-13.79 0-27.58-.002-41.372 0-1.55 0-1.554.001-1.553 1.522.002 1.185-.014 2.37.03 3.552.025.661-.219.93-.883.926a963.029 963.029 0 0 0-10.75.007c-.979.008-1.069-.558-1.068-1.307l-.008-19.486c-.175-2.709.95-4.737 3.066-6.327.686-.516 1.295-1.138 1.948-1.7.416-.358.543-.613-.122-.84-1.359-.46-2.7-.962-4.05-1.447-1.46-.524-1.995-1.668-1.456-3.123.741-2 1.44-2.49 3.561-2.491 1.952 0 3.903-.02 5.855.008.804.01 1.18-.31 1.406-1.1a114.593 114.593 0 0 1 1.948-6.107c.701-2.02 2.386-3.16 4.556-3.163l36.042-.002c2.837.003 4.373 1.177 5.188 3.88.58 1.924 1.226 3.827 1.833 5.742.207.654.706.745 1.29.743 2.078-.006 4.158-.005 6.238 0zm-57.925 19.5a3.159 3.159 0 1 0 .001-6.318 3.159 3.159 0 0 0 0 6.318zM55.638 85a2.813 2.813 0 1 0 .002-5.627A2.813 2.813 0 0 0 55.638 85zm35.528 0a2.813 2.813 0 1 0 0-5.627 2.813 2.813 0 0 0 0 5.627zm3.366-14.21c1.172 0 1.21-.108.844-1.191-.946-2.81-1.88-5.623-2.746-8.457-.266-.873-.652-1.232-1.602-1.225-5.79.039-11.583.02-17.375.019-5.792 0-11.584.024-17.376-.022-.995-.007-1.387.363-1.663 1.27-.853 2.808-1.78 5.59-2.72 8.37-.383 1.128-.347 1.236.878 1.237 13.92.002 27.84.002 41.76 0zm4.207 14.556a3.16 3.16 0 1 0 .001-6.32 3.16 3.16 0 0 0 0 6.32z"/></g><g><path fill="#343233" d="M132.201 33.465a355.475 355.475 0 0 1-6.009-1.925c-3.937-1.287-7.872-2.588-11.81-3.876-2.605-.852-5.216-1.686-7.822-2.537-3.179-1.039-6.354-2.094-9.535-3.129-3.244-1.056-6.496-2.086-9.738-3.147a2736.544 2736.544 0 0 1-13.072-4.318c-.529-.175-1.005-.064-1.494.104-1.385.476-2.764.972-4.158 1.421-3.339 1.076-6.692 2.107-10.026 3.2-5.477 1.792-10.937 3.636-16.414 5.427-3.909 1.28-7.839 2.492-11.752 3.76-5.155 1.668-10.299 3.371-15.455 5.034-.864.28-1.28.681-1.273 1.69.051 5.758.025 11.517.025 17.276v49.436c0 .288.016.577-.002.863-.04.61.168.866.836.993 1.428.271 2.827.003 4.24-.004 2.575-.013 5.151.086 7.73.115 1.431.017 1.478-.043 1.48-1.427.002-4.19.002-8.379.002-12.569l-.002-40.7c0-1.304.005-1.307 1.345-1.307l89.017-.015c.857 0 1.001.373 1 1.103-.016 7.806-.01 15.613-.01 23.42 0 10.078.004 20.157-.01 30.236-.002.771.178 1.16 1.051 1.194 3.966.156 7.933.024 11.9.067 1.33.014 1.342-.017 1.342-1.336V35.321c0-1.42-.05-1.445-1.386-1.856z"/></g></g></svg>