<svg xmlns="http://www.w3.org/2000/svg" width="104" height="130" viewBox="0 0 104 130"><g><g><path fill="#343233" d="M4.887 128.51a4.171 4.171 0 0 1-1.156-4.713l13.56-33.893C6.507 80.124.384 66.371.384 51.708c0-28.452 23.148-51.6 51.6-51.6s51.6 23.148 51.6 51.6c0 28.065-22.52 50.97-50.44 51.587L9.72 128.935a4.156 4.156 0 0 1-2.118.578c-.973 0-1.94-.339-2.715-1.004zm3.835-76.802c0 13.167 5.89 25.46 16.16 33.724a4.166 4.166 0 0 1 1.257 4.796l-10.124 25.308L49.866 95.55a4.166 4.166 0 0 1 2.12-.579c23.853 0 43.262-19.408 43.262-43.263 0-23.855-19.409-43.263-43.263-43.263S8.722 27.853 8.722 51.708z"/></g><g><path fill="#343233" d="M58.874 50.183a6.89 6.89 0 1 1-13.778 0 6.89 6.89 0 0 1 13.778 0z"/></g><g><path fill="#343233" d="M42.468 50.183a6.889 6.889 0 1 1-13.776 0 6.889 6.889 0 0 1 13.776 0z"/></g><g><path fill="#343233" d="M75.28 50.183a6.89 6.89 0 1 1-13.778 0 6.89 6.89 0 0 1 13.778 0z"/></g></g></svg>