<svg xmlns="http://www.w3.org/2000/svg" width="449" height="101" viewBox="0 0 449 101"><g><g><path fill="#fff" d="M69.245 21.005a5.608 5.608 0 0 1 3.696 9.824h.001l-.006.004a5.71 5.71 0 0 1-.483.38c-.542.496-1.338 1.481-1.338 2.976V66.85c0 1.494.796 2.48 1.338 2.976a5.514 5.514 0 0 1 .49.383h-.002a5.607 5.607 0 1 1-7.391 0l.005-.004c.154-.135.315-.262.483-.379.541-.497 1.34-1.482 1.34-2.976V52.388h-8.76a7.861 7.861 0 0 1-2.107 3.72 7.721 7.721 0 0 1-1.251 1.009 7.803 7.803 0 0 1-2.493 1.064v8.67c0 1.493.797 2.478 1.34 2.975a5.667 5.667 0 0 1 .488.383 5.608 5.608 0 1 1-7.391 0H47.2l.007-.004c.154-.135.315-.262.483-.379.541-.497 1.338-1.482 1.338-2.976v-8.703a7.832 7.832 0 0 1-2.857-1.393 7.873 7.873 0 0 1-2.845-4.366H34.42V66.85c0 1.494.797 2.48 1.34 2.976a5.514 5.514 0 0 1 .487.383 5.608 5.608 0 1 1-7.39 0h-.003l.006-.004c.154-.135.315-.262.483-.379.542-.497 1.34-1.482 1.34-2.976V34.19c0-1.496-.798-2.48-1.34-2.978a5.71 5.71 0 0 1-.489-.383h.002a5.608 5.608 0 1 1 9.303-4.216 5.593 5.593 0 0 1-1.913 4.216h.001l-.005.004a5.71 5.71 0 0 1-.483.38c-.542.496-1.339 1.481-1.339 2.976v14.46h8.907a7.877 7.877 0 0 1 5.702-5.758V34.19c0-1.495-.797-2.48-1.338-2.977a5.71 5.71 0 0 1-.483-.379l-.007-.004h.002a5.608 5.608 0 1 1 7.391 0h.001l-.006.004a5.875 5.875 0 0 1-.483.38c-.542.496-1.339 1.481-1.339 2.976v8.668a7.824 7.824 0 0 1 3.743 2.073 7.833 7.833 0 0 1 1.554 2.178 7.861 7.861 0 0 1 .553 1.541h8.76V34.19c0-1.495-.798-2.48-1.339-2.977a5.71 5.71 0 0 1-.489-.383h.001a5.607 5.607 0 0 1 3.695-9.824zM50.972 55.066a4.548 4.548 0 1 0 0-9.096 4.548 4.548 0 0 0 0 9.096z"/></g><g><path fill="#fff" d="M50.898.52c27.57 0 50 22.43 50 50s-22.43 50-50 50-50-22.43-50-50 22.43-50 50-50zm0 93.294c23.873 0 43.295-19.421 43.295-43.294 0-23.873-19.422-43.294-43.295-43.294S7.603 26.646 7.603 50.52c0 23.873 19.422 43.294 43.295 43.294z"/></g><g><path fill="#fff" d="M129.388 33.825c-.265-1.523 1.325-3.047 3.909-3.047 3.114 0 5.3 1.722 5.763 4.438.2 1.325.862 1.922 2.187 1.657l7.553-1.657c1.192-.265 1.789-.994 1.722-2.186-.397-4.77-3.577-13.648-17.225-13.648-14.841 0-16.033 11.727-15.967 13.714 0 15.238 19.942 13.98 21.2 19.611.399 1.788-1.987 3.71-5.233 3.71-3.114 0-5.565-1.855-5.83-5.035-.133-1.39-.861-1.988-2.186-1.723l-7.487 1.657c-1.192.264-1.79.993-1.722 2.186.33 5.167 3.312 14.31 17.225 14.31 15.7 0 17.954-11.726 17.954-13.714 0-15.238-20.935-15.105-21.863-20.273z"/></g><g><path fill="#fff" d="M189.145 64.831v-42.4c0-1.326-.663-1.989-1.988-1.989h-7.42c-1.259 0-1.988.73-1.988 1.988v16.563c0 1.258-.662 1.987-1.987 1.987h-6.36c-1.259 0-1.987-.729-1.987-1.987V22.43c0-1.259-.729-1.988-1.988-1.988h-7.421c-1.325 0-1.987.663-1.987 1.988v42.401c0 1.26.729 1.987 1.987 1.987h7.421c1.325 0 1.988-.728 1.988-1.987V54.363c0-1.325.728-1.988 1.987-1.988h6.36c1.325 0 1.987.663 1.987 1.988v10.468c0 1.26.729 1.987 1.988 1.987h7.42c1.325 0 1.988-.728 1.988-1.987z"/></g><g><path fill="#fff" d="M207.03 22.43c0-1.325-.662-1.988-1.987-1.988h-7.288c-1.258 0-1.988.663-1.988 1.988v42.401c0 1.26.73 1.987 1.988 1.987h7.288c1.325 0 1.987-.728 1.987-1.987z"/></g><g><path fill="#fff" d="M238.366 37.933h-10.932c-1.258 0-1.987-.729-1.987-1.988v-2.12c0-1.325.73-1.987 1.987-1.987h16.696c1.325 0 1.987-.729 1.987-1.988v-7.42c0-1.325-.662-1.988-1.987-1.988h-28.489c-1.258 0-1.986.663-1.986 1.988v42.401c0 1.26.728 1.987 1.986 1.987h7.82c1.323 0 1.986-.728 1.986-1.987V51.316c0-1.325.73-1.988 1.987-1.988h10.932c1.325 0 1.988-.728 1.988-1.987v-7.42c0-1.325-.663-1.988-1.988-1.988z"/></g><g><path fill="#fff" d="M272.086 64.831V33.825c0-1.325.729-1.987 1.988-1.987h9.275c1.325 0 1.987-.729 1.987-1.987v-7.42c0-1.326-.662-1.989-1.987-1.989h-33.921c-1.26 0-1.988.663-1.988 1.988v7.421c0 1.258.729 1.987 1.988 1.987h9.276c1.324 0 1.987.662 1.987 1.987v31.006c0 1.26.729 1.987 1.988 1.987h7.42c1.324 0 1.987-.728 1.987-1.987z"/></g><g><path fill="#fff" d="M318.525 68.011c15.702 0 16.628-11.727 16.628-16.1v-8.943c0-1.325-.662-1.988-1.986-1.988h-13.25c-1.26 0-1.989.663-1.989 1.988v5.3c0 1.26.73 1.988 1.988 1.988h3.842c0 3.246-.33 6.36-5.233 6.36s-5.234-3.114-5.234-8.216v-9.54c0-5.1.331-8.215 5.234-8.215 3.776 0 4.903 1.855 5.167 5.035.133 1.392.861 1.988 2.187 1.723l7.486-1.657c1.193-.264 1.788-.993 1.723-2.186-.33-5.168-2.65-14.31-16.563-14.31-15.702 0-16.629 11.726-16.629 16.1V51.91c0 4.373.927 16.1 16.63 16.1z"/></g><g><path fill="#fff" d="M356.883 19.25c14.907 0 16.232 8.878 16.232 17.226v28.09c0 1.458-.663 2.252-1.988 2.252h-7.42c-1.26 0-1.988-.662-1.988-1.987v-5.763c0-1.326-.663-1.988-1.987-1.988h-5.698c-1.26 0-1.987.662-1.987 1.988v5.763c0 1.325-.663 1.987-1.988 1.987h-7.42c-1.26 0-1.987-.794-1.987-2.252v-28.09c0-8.348 1.325-17.226 16.23-17.226zm4.836 17.226c0-3.18-.463-4.771-4.836-4.771-4.372 0-4.836 1.59-4.836 4.77v7.22c0 1.26.728 1.99 1.987 1.99h5.698c1.324-.067 1.987-.73 1.987-2.054z"/></g><g><path fill="#fff" d="M411.34 20.442h-33.92c-1.26 0-1.988.663-1.988 1.988v7.42c0 1.26.728 1.988 1.987 1.988h9.275c1.325 0 1.988.662 1.988 1.987v31.006c0 1.258.73 1.987 1.988 1.987h7.42c1.325 0 1.987-.729 1.987-1.987V33.825c0-1.325.73-1.987 1.988-1.987h9.275c1.325 0 1.987-.729 1.987-1.988v-7.42c0-1.325-.662-1.988-1.987-1.988z"/></g><g><path fill="#fff" d="M447.114 20.442h-27.825c-1.258 0-1.987.663-1.987 1.988v42.401c0 1.258.729 1.987 1.987 1.987h27.825c1.326 0 1.988-.663 1.988-1.987v-7.42c0-1.325-.662-1.988-1.988-1.988h-16.032c-1.26 0-1.988-.729-1.988-1.987v-2.12c0-1.326.729-1.988 1.988-1.988h10.269c1.325 0 1.987-.729 1.987-1.988v-7.42c0-1.325-.662-1.987-1.987-1.987h-10.27c-1.258 0-1.987-.729-1.987-1.988v-2.12c0-1.325.729-1.987 1.988-1.987h16.032c1.326 0 1.988-.729 1.988-1.988v-7.42c0-1.325-.662-1.988-1.988-1.988z"/></g><g><path fill="#fff" d="M189.46 78.452l4.067 9.554h-2.182l-.868-2.128h-4.011l-.868 2.128h-2.127l4.065-9.554zm.272 5.583l-1.261-3.076-1.26 3.076z"/></g><g><path fill="#fff" d="M202.035 83.955c0 1.504-.772 2.276-2.047 2.276-1.273 0-2.046-.8-2.046-2.344V78.52h-2.087v5.42c0 2.793 1.558 4.216 4.107 4.216 2.547 0 4.16-1.41 4.16-4.283V78.52h-2.087z"/></g><g><path fill="#fff" d="M206.925 80.444h2.887v7.562h2.087v-7.562h2.886V78.52h-7.86z"/></g><g><path fill="#fff" d="M221.965 78.357c2.928 0 5.028 2.182 5.028 4.879v.027c0 2.697-2.128 4.906-5.056 4.906-2.927 0-5.027-2.182-5.027-4.879v-.027c0-2.697 2.128-4.906 5.055-4.906zm2.846 4.906c0-1.626-1.193-2.982-2.874-2.982-1.68 0-2.845 1.329-2.845 2.955v.027c0 1.627 1.193 2.981 2.873 2.981 1.681 0 2.846-1.328 2.846-2.954z"/></g><g><path fill="#fff" d="M234.946 82.531l-2.494-4.012h-2.25v9.487h2.047v-6.152l2.642 4.011h.055l2.67-4.052v6.193h2.073V78.52h-2.25z"/></g><g><path fill="#fff" d="M247.953 78.357c2.927 0 5.028 2.182 5.028 4.879v.027c0 2.697-2.129 4.906-5.056 4.906s-5.028-2.182-5.028-4.879v-.027c0-2.697 2.128-4.906 5.056-4.906zm2.845 4.906c0-1.626-1.192-2.982-2.873-2.982-1.68 0-2.846 1.329-2.846 2.955v.027c0 1.627 1.193 2.981 2.874 2.981 1.68 0 2.845-1.328 2.845-2.954z"/></g><g><path fill="#fff" d="M255.105 80.444h2.887v7.562h2.087v-7.562h2.887V78.52h-7.861z"/></g><g><path fill="#fff" d="M266.013 88.006h2.087v-9.487h-2.087z"/></g><g><path fill="#fff" d="M275.796 85.201l-2.48-6.682h-2.305l3.836 9.555h1.844l3.834-9.555h-2.249z"/></g><g><path fill="#fff" d="M285.416 84.157h4.472v-1.856h-4.472v-1.925h5.082V78.52h-7.156v9.487h7.223V86.15h-5.149z"/></g><g><path fill="#fff" d="M304.372 78.452l4.065 9.554h-2.18l-.869-2.128h-4.01l-.869 2.128h-2.127l4.065-9.554zm.271 5.583l-1.26-3.076-1.26 3.076z"/></g><g><path fill="#fff" d="M316.946 83.955c0 1.504-.772 2.276-2.046 2.276-1.274 0-2.047-.8-2.047-2.344V78.52h-2.087v5.42c0 2.793 1.558 4.216 4.106 4.216 2.549 0 4.16-1.41 4.16-4.283V78.52h-2.086z"/></g><g><path fill="#fff" d="M327.026 86.244c-1.626 0-2.751-1.354-2.751-2.98v-.028c0-1.626 1.152-2.955 2.75-2.955.95 0 1.695.407 2.427 1.071l1.328-1.53c-.88-.869-1.952-1.465-3.74-1.465-2.914 0-4.947 2.21-4.947 4.906v.027c0 2.724 2.073 4.88 4.866 4.88 1.829 0 2.913-.652 3.889-1.696l-1.328-1.34c-.746.676-1.41 1.11-2.494 1.11z"/></g><g><path fill="#fff" d="M333.19 80.444h2.887v7.562h2.087v-7.562h2.887V78.52h-7.861z"/></g><g><path fill="#fff" d="M344.097 88.006h2.087v-9.487h-2.087z"/></g><g><path fill="#fff" d="M354.545 78.357c2.927 0 5.028 2.182 5.028 4.879v.027c0 2.697-2.129 4.906-5.056 4.906-2.928 0-5.028-2.182-5.028-4.879v-.027c0-2.697 2.128-4.906 5.056-4.906zm2.845 4.906c0-1.626-1.193-2.982-2.873-2.982-1.68 0-2.846 1.329-2.846 2.955v.027c0 1.627 1.193 2.981 2.874 2.981 1.68 0 2.845-1.328 2.845-2.954z"/></g><g><path fill="#fff" d="M369.151 84.36l-4.446-5.84h-1.925v9.486h2.06v-6.03l4.596 6.03h1.775V78.52h-2.06z"/></g><g><path fill="#fff" d="M378.688 82.328c-1.639-.42-2.046-.624-2.046-1.247v-.027c0-.46.42-.827 1.22-.827s1.626.352 2.467.935l1.084-1.572c-.963-.772-2.142-1.206-3.524-1.206-1.938 0-3.32 1.138-3.32 2.86v.026c0 1.885 1.233 2.413 3.143 2.901 1.586.407 1.911.678 1.911 1.206v.027c0 .556-.515.895-1.369.895-1.084 0-1.978-.448-2.832-1.152l-1.233 1.477a6.04 6.04 0 0 0 4.025 1.518c2.046 0 3.483-1.057 3.483-2.94v-.028c0-1.654-1.084-2.345-3.009-2.846z"/></g></g></svg>