<svg xmlns="http://www.w3.org/2000/svg" width="56" height="46" viewBox="0 0 56 46"><g><g><path fill="#fff" d="M49.696 11.404l.03 1.463c0 15.01-11.435 32.326-32.335 32.326A31.934 31.934 0 0 1-.012 40.067a20.59 20.59 0 0 0 2.704.174A22.816 22.816 0 0 0 16.8 35.367c-4.98-.086-9.148-3.381-10.612-7.887.7.145 1.406.202 2.141.202 1.038 0 2.055-.144 2.985-.396-5.184-1.046-9.098-5.631-9.098-11.124v-.145a11.173 11.173 0 0 0 5.126 1.413 11.343 11.343 0 0 1-5.04-9.436c0-2.084.562-4.052 1.55-5.717a32.205 32.205 0 0 0 23.402 11.858c-.203-.821-.282-1.693-.282-2.594C26.972 5.29 32.04.193 38.32.193a11.45 11.45 0 0 1 8.304 3.576 22.889 22.889 0 0 0 7.21-2.732 11.307 11.307 0 0 1-5.01 6.279 22.844 22.844 0 0 0 6.531-1.803 23.365 23.365 0 0 1-5.659 5.89z"/></g></g></svg>