<svg xmlns="http://www.w3.org/2000/svg" width="68" height="68" viewBox="0 0 68 68"><g><g><path fill="#fff" d="M43.893 28.593c-1.978-1.426-4.415-2.346-6.67-2.806v3.772c7.682 1.517 12.05 3.91 12.05 10.165v.091c0 6.072-4.736 9.613-11.957 10.164v4.508h-4.783V49.98c-5.106-.46-10.073-2.069-13.983-4.783l4.692-6.944c3.403 2.207 6.577 3.403 9.567 3.863v-3.863c-8.141-1.565-12.42-4.094-12.42-10.119v-.092c0-5.703 4.095-9.889 12.328-10.303v-2.622H37.5v2.76c4.277.414 7.727 1.748 10.809 3.726zM32.9 25.373c-2.254.046-3.082.782-3.082 1.702v.092c0 .966.69 1.518 3.082 1.932zm4.23 17.018c2.117-.092 2.945-.782 2.945-1.748v-.092c0-.966-.598-1.472-2.944-1.886z"/></g><g><path fill="#c01a2d" d="M.064 34.122C.064 15.38 15.31.135 34.05.135c18.74 0 33.986 15.246 33.986 33.987 0 18.74-15.246 33.986-33.986 33.986C15.31 68.108.064 52.862.064 34.122zm7.011 0c0 14.874 12.101 26.974 26.975 26.974s26.974-12.1 26.974-26.974S48.924 7.147 34.05 7.147 7.075 19.247 7.075 34.122z"/></g><g><path fill="#c01a2d" d="M13.866 57.032l-3.718-3.72L53.041 10.42l3.718 3.718z"/></g></g></svg>