<svg xmlns="http://www.w3.org/2000/svg" width="68" height="48" viewBox="0 0 68 48"><g><g><path fill="#fff" d="M66 7.533c1.393 5.235 1.393 16.16 1.393 16.16s0 10.925-1.394 16.16a8.385 8.385 0 0 1-5.898 5.938c-5.202 1.402-26.063 1.402-26.063 1.402s-20.86 0-26.063-1.402a8.386 8.386 0 0 1-5.898-5.937C.684 34.618.684 23.693.684 23.693s0-10.925 1.393-16.16a8.385 8.385 0 0 1 5.898-5.937C13.178.193 34.038.193 34.038.193s20.861 0 26.063 1.403A8.383 8.383 0 0 1 66 7.533zm-21.348 16.16l-17.436-9.918v19.837z"/></g></g></svg>